<svg id="Layer_2" data-name="Layer 2" xmlns="http://www.w3.org/2000/svg" viewBox="0 0 413.82 197.18"><defs><style>.cls-1,.cls-2{fill:#273f90;}.cls-2{font-size:40.06px;font-family:Gantari-Black, Gantari;font-weight:800;}.cls-3{letter-spacing:-0.04em;}.cls-4{fill:#129447;}</style></defs><path class="cls-1" d="M1,112.23l17-30.78c18.54,7.69,23.45,9,34.09,10.88,12.41,2.23,20.37,0,20.37-6.52,0-5-8.28-5.73-16.66-7L44,76.62C16.87,70.75,5.63,60.56,5.14,42.79,4.33,13.81,21.28-.82,60.27-.82c15.3,0,30.92,2.34,49.68,9.94L96.75,38.86C82.24,34.55,69.37,32.6,61,32.6c-11.53,0-14.73,2.08-14.73,6.28S50,44.29,58.39,45.6l15.72,2.62c28.3,4.49,40,12.94,40,36.12,0,31.6-20.34,43.61-59.54,43.61C34.49,128,17.93,123.46,1,112.23Z" transform="translate(0.69 0.82)"/><path class="cls-1" d="M173.3,126.08l-52.2-125h44.44l29.77,71.46L225.08,1.05h44.44l-52.2,125Z" transform="translate(0.69 0.82)"/><path class="cls-1" d="M365.11,126.08,334.72,81.35,321.51,95.57v30.51H281.68V1.05h39.83V47.84L363,1.05h46.54L359.45,55l52.2,71.12Z" transform="translate(0.69 0.82)"/><text class="cls-2" transform="translate(0 186.76)">US<tspan class="cls-3" x="52.56" y="0">Ł</tspan><tspan x="72.83" y="0">UGI OGRODNICZE</tspan></text><rect class="cls-4" x="1.63" y="141.22" width="410.71" height="7.63"/></svg>